<svg xmlns="http://www.w3.org/2000/svg" viewBox="0 0 40 40"><defs><style>.cls-2{fill:#fff}</style></defs><g id="Camada_2" data-name="Camada 2"><g id="Site_Geral" data-name="Site Geral"><path d="M38.38 20A18.38 18.38 0 1 1 20 1.62 18.39 18.39 0 0 1 38.38 20z" opacity=".25" fill="#fff"/><path class="cls-2" d="M13.36 18a.81.81 0 0 0 0 1.15l6.07 6.07a.82.82 0 0 0 1.14 0l6.07-6.07a.81.81 0 0 0 0-1.15.8.8 0 0 0-1.14 0L20 23.48 14.5 18a.81.81 0 0 0-1.14 0z"/><circle class="cls-2" cx="20" cy="16.96" r=".8"/><path class="cls-2" d="M0 20A20 20 0 1 0 20 0 20 20 0 0 0 0 20zm38.38 0A18.38 18.38 0 1 1 20 1.62 18.39 18.39 0 0 1 38.38 20z"/></g></g></svg>